<svg width="42" height="42" viewBox="0 0 42 42" fill="none" xmlns="http://www.w3.org/2000/svg">
<path d="M20.907 41.8141C32.4537 41.8141 41.8141 32.4537 41.8141 20.907C41.8141 9.3604 32.4537 0 20.907 0C9.3604 0 0 9.3604 0 20.907C0 32.4537 9.3604 41.8141 20.907 41.8141Z" fill="white"/>
<path d="M30.4692 19.5914H11.3449C10.3248 19.5914 9.85768 18.3235 10.6204 17.6657L20.1825 9.38102C20.5924 9.01875 21.2121 9.01875 21.6221 9.38102L31.1842 17.6657C31.9564 18.333 31.4797 19.5914 30.4597 19.5914H30.4692Z" fill="#8490A5"/>
<path d="M29.5063 17.6656V29.2775C29.5063 29.859 29.0392 30.3357 28.4481 30.3357H24.4917C24.0722 30.3357 23.7385 30.002 23.7385 29.5826V23.9292C23.7385 23.5192 23.4048 23.176 22.9854 23.176H18.8097C18.3997 23.176 18.0565 23.5097 18.0565 23.9292V29.5826C18.0565 30.002 17.7228 30.3357 17.3034 30.3357H13.347C12.7654 30.3357 12.2887 29.8686 12.2887 29.2775V17.6656H29.4872H29.5063Z" fill="#8490A5"/>
</svg>
