<svg width="43" height="42" viewBox="0 0 43 42" fill="none" xmlns="http://www.w3.org/2000/svg">
<path d="M21.2804 41.8141C33.0332 41.8141 42.5608 32.4537 42.5608 20.907C42.5608 9.3604 33.0332 0 21.2804 0C9.52755 0 0 9.3604 0 20.907C0 32.4537 9.52755 41.8141 21.2804 41.8141Z" fill="white"/>
<path d="M14.381 13.0323H28.1798C28.4806 13.0323 28.6067 13.4137 28.3544 13.5853L21.6782 18.1709C21.4357 18.3425 21.1057 18.3425 20.8631 18.1709L14.1869 13.5853C13.9346 13.4137 14.0608 13.0323 14.3616 13.0323H14.381Z" fill="#8490A5"/>
<path d="M31.9157 15.8162V25.8645C31.9157 26.9132 31.0521 27.7712 29.975 27.7712H12.5858C11.5184 27.7712 10.6451 26.9132 10.6451 25.8645V15.8162C10.6451 15.4443 11.072 15.2251 11.3825 15.4443L19.3299 20.9547C19.9122 21.3551 20.5914 21.5649 21.2804 21.5649C21.9694 21.5649 22.6486 21.3647 23.2309 20.9547L31.1782 15.4443C31.4888 15.2251 31.9157 15.4443 31.9157 15.8162Z" fill="#8490A5"/>
</svg>
