<svg width="79" height="128" viewBox="0 0 79 128" fill="none" xmlns="http://www.w3.org/2000/svg">
<g clip-path="url(#clip0_122_31)">
<path d="M69.79 14.32L55.71 0L9.09003 42.58L22.52 48.26L69.79 14.32Z" fill="#B3B3B3"/>
<path d="M26.75 75.83V57.11L63.86 33.24C67.56 30.86 69.79 26.77 69.79 22.38V14.32L14.08 50.15V90.62" fill="#B3B3B3"/>
<path d="M55.71 59.17L78.47 76.88L34.59 110.56C34.59 110.56 30.21 104.41 30.21 104.05C30.21 103.69 35.43 87.32 35.43 87.32L55.71 59.17Z" fill="#B3B3B3"/>
<path d="M12.67 42.79L35.43 51.4L35.41 72.22L12.67 86.85V42.79Z" fill="#B3B3B3"/>
<path d="M35.43 51.4L26.86 56.91C24.31 58.55 22.76 61.38 22.76 64.42V80.36L35.43 72.21V51.4Z" fill="#10638F"/>
<path d="M35.43 104.56V87.32L22.76 95.47V127.82L72.54 95.8C76.24 93.42 78.47 89.33 78.47 84.94V76.88L35.43 104.56Z" fill="#10638F"/>
<path d="M49.78 78.09C53.48 75.71 55.71 71.62 55.71 67.23V59.17L35.43 72.21V87.32L49.78 78.09Z" fill="#1398C9"/>
<path d="M12.67 86.85V42.79L49.78 18.92C53.48 16.54 55.71 12.45 55.71 8.06V0L0 35.83V110.11L22.76 95.47V80.36L12.67 86.85Z" fill="#1398C9"/>
<path d="M22.76 127.81L0 110.11L22.76 95.47V127.81Z" fill="#B3B3B3"/>
<path d="M54.71 53.75C60.5973 53.75 65.37 48.9773 65.37 43.09C65.37 37.2026 60.5973 32.43 54.71 32.43C48.8226 32.43 44.05 37.2026 44.05 43.09C44.05 48.9773 48.8226 53.75 54.71 53.75Z" fill="#FFEA00"/>
</g>
<defs>
<clipPath id="clip0_122_31">
<rect width="78.47" height="127.81" fill="white"/>
</clipPath>
</defs>
</svg>
