<svg width="297" height="216" viewBox="0 0 297 216" fill="none" xmlns="http://www.w3.org/2000/svg">
<path d="M279.729 216H17.278C7.73848 216 0 208.261 0 198.705V31.2302C0 21.6816 7.73163 13.9357 17.278 13.9357H185.039C189.161 13.9357 193.154 12.4619 196.283 9.77487L202.823 4.16768C205.953 1.48062 209.946 0.0068512 214.068 0.0068512H279.736C289.275 0.0068512 297.014 7.74586 297.014 17.3014V198.712C297.014 208.261 289.282 216.007 279.736 216.007L279.729 216Z" fill="#DA6058"/>
<path d="M271 19C271 18.4477 270.552 18 270 18L261 18C260.448 18 260 18.4477 260 19C260 19.5523 260.448 20 261 20L269 20L269 28C269 28.5523 269.448 29 270 29C270.552 29 271 28.5523 271 28L271 19ZM251.707 38.7071L270.707 19.7071L269.293 18.2929L250.293 37.2929L251.707 38.7071Z" fill="black"/>
</svg>
