<svg width="42" height="42" viewBox="0 0 42 42" fill="none" xmlns="http://www.w3.org/2000/svg">
<path d="M20.907 41.8141C32.4537 41.8141 41.8141 32.4537 41.8141 20.907C41.8141 9.3604 32.4537 0 20.907 0C9.3604 0 0 9.3604 0 20.907C0 32.4537 9.3604 41.8141 20.907 41.8141Z" fill="white"/>
<path d="M28.3718 14.3575H13.4518C12.046 14.3575 10.9064 15.4971 10.9064 16.9029V27.0466C10.9064 28.4524 12.046 29.5921 13.4518 29.5921H28.3718C29.7776 29.5921 30.9173 28.4524 30.9173 27.0466V16.9029C30.9173 15.4971 29.7776 14.3575 28.3718 14.3575Z" fill="#8490A5"/>
<path d="M27.2659 14.3575C27.2659 14.2527 27.2659 14.1573 27.2469 14.0715C27.0657 11.5261 25.5213 9.29522 23.0807 8.38953C20.621 7.47431 17.7228 8.24653 16.0545 10.2676C14.3575 12.3269 14.062 15.2918 15.4443 17.6085C16.8267 19.9156 19.5152 21.0787 22.1369 20.5925C25.0637 20.049 27.0657 17.475 27.2469 14.5959C27.2469 14.5196 27.2564 14.4433 27.2564 14.3671L27.2659 14.3575ZM20.9071 17.8945C18.9813 17.8945 17.3796 16.2928 17.3796 14.3671C17.3796 12.4413 18.9813 10.8397 20.9071 10.8397C22.8328 10.8397 24.3773 12.4413 24.4345 14.3671C24.3773 16.2928 22.871 17.8945 20.9071 17.8945Z" fill="#8490A5"/>
<path d="M27.2659 15.778C27.2659 16.5598 26.6367 17.189 25.8549 17.189C25.0732 17.189 24.444 16.5598 24.444 15.778C24.444 14.9963 25.0732 14.3671 25.8549 14.3671C26.6367 14.3671 27.2659 14.9963 27.2659 15.778Z" fill="white"/>
<path d="M17.3987 15.778C17.3987 16.5598 16.7695 17.189 15.9877 17.189C15.206 17.189 14.5768 16.5598 14.5768 15.778C14.5768 14.9963 15.206 14.3671 15.9877 14.3671C16.7695 14.3671 17.3987 14.9963 17.3987 15.778Z" fill="white"/>
<path d="M17.3987 14.3575H14.5672V15.7684H17.3987V14.3575Z" fill="white"/>
<path d="M27.2659 14.3575H24.4344V15.7684H27.2659V14.3575Z" fill="white"/>
</svg>
