<svg width="42" height="42" viewBox="0 0 42 42" fill="none" xmlns="http://www.w3.org/2000/svg">
<path d="M20.907 41.8141C32.4537 41.8141 41.8141 32.4537 41.8141 20.907C41.8141 9.3604 32.4537 0 20.907 0C9.3604 0 0 9.3604 0 20.907C0 32.4537 9.3604 41.8141 20.907 41.8141Z" fill="white"/>
<path d="M17.8373 15.7017C17.8563 15.6064 17.8849 15.5206 17.904 15.4253C17.9421 15.2823 18.1805 14.7007 17.9993 15.1107C18.3139 14.4147 18.4855 14.1478 18.9241 13.7378C19.315 13.366 20.0395 13.0896 20.8689 13.1277C21.7174 13.1754 22.5087 13.4709 23.0521 14.0334C23.9197 14.9391 24.0055 16.4358 23.3381 17.2366C22.5754 18.1519 21.3647 19.1719 20.602 20.3064C19.8584 21.4123 19.2864 22.3275 19.4103 24.2057C19.5247 26.0933 22.5182 26.427 22.5182 24.0055C22.5945 21.6983 25.0351 20.4876 26.1505 18.7525C27.0943 17.2843 27.1801 15.3299 26.5509 13.7283C25.0065 9.83861 19.3912 8.56112 16.4644 11.6977C15.6732 12.5557 15.0153 13.6997 14.777 14.8533C14.3766 16.8553 17.4369 17.7038 17.8468 15.7017H17.8373Z" fill="#8490A5"/>
<path d="M20.907 31.4416C21.8811 31.4416 22.6708 30.652 22.6708 29.6779C22.6708 28.7038 21.8811 27.9142 20.907 27.9142C19.933 27.9142 19.1433 28.7038 19.1433 29.6779C19.1433 30.652 19.933 31.4416 20.907 31.4416Z" fill="#8490A5"/>
</svg>
